<svg width="40" height="40" viewBox="0 0 40 40" fill="none" xmlns="http://www.w3.org/2000/svg">
  <!-- Background circle with gradient -->
  <defs>
    <linearGradient id="logoGradient" x1="0%" y1="0%" x2="100%" y2="100%">
      <stop offset="0%" style="stop-color:#2563eb;stop-opacity:1" />
      <stop offset="100%" style="stop-color:#7c3aed;stop-opacity:1" />
    </linearGradient>
    <linearGradient id="bookGradient" x1="0%" y1="0%" x2="100%" y2="100%">
      <stop offset="0%" style="stop-color:#ffffff;stop-opacity:1" />
      <stop offset="100%" style="stop-color:#f1f5f9;stop-opacity:1" />
    </linearGradient>
  </defs>
  
  <!-- Main circle background -->
  <circle cx="20" cy="20" r="18" fill="url(#logoGradient)" stroke="none"/>
  
  <!-- Inner circle for depth -->
  <circle cx="20" cy="20" r="16" fill="none" stroke="rgba(255,255,255,0.2)" stroke-width="0.5"/>
  
  <!-- Book icon -->
  <g transform="translate(12, 11)">
    <!-- Book spine -->
    <rect x="2" y="1" width="12" height="16" rx="1" fill="url(#bookGradient)" stroke="none"/>
    
    <!-- Book pages -->
    <rect x="3" y="2" width="10" height="14" rx="0.5" fill="rgba(37, 99, 235, 0.1)" stroke="none"/>
    
    <!-- Book lines (representing text) -->
    <line x1="5" y1="5" x2="11" y2="5" stroke="rgba(37, 99, 235, 0.6)" stroke-width="0.8" stroke-linecap="round"/>
    <line x1="5" y1="7" x2="10" y2="7" stroke="rgba(37, 99, 235, 0.5)" stroke-width="0.8" stroke-linecap="round"/>
    <line x1="5" y1="9" x2="11" y2="9" stroke="rgba(37, 99, 235, 0.6)" stroke-width="0.8" stroke-linecap="round"/>
    <line x1="5" y1="11" x2="9" y2="11" stroke="rgba(37, 99, 235, 0.5)" stroke-width="0.8" stroke-linecap="round"/>
    <line x1="5" y1="13" x2="10" y2="13" stroke="rgba(37, 99, 235, 0.6)" stroke-width="0.8" stroke-linecap="round"/>
    
    <!-- Bookmark -->
    <polygon points="1,1 1,17 2.5,15.5 4,17 4,1" fill="rgba(220, 38, 38, 0.8)" stroke="none"/>
  </g>
  
  <!-- Subtle highlight -->
  <circle cx="16" cy="14" r="2" fill="rgba(255,255,255,0.3)" opacity="0.6"/>
  
  <!-- Optional: Small sparkle effect -->
  <g opacity="0.7">
    <circle cx="28" cy="12" r="0.8" fill="rgba(255,255,255,0.9)"/>
    <circle cx="30" cy="16" r="0.5" fill="rgba(255,255,255,0.7)"/>
    <circle cx="26" cy="28" r="0.6" fill="rgba(255,255,255,0.8)"/>
  </g>
</svg>
